<svg xmlns="http://www.w3.org/2000/svg" width="24" height="24" viewBox="0 0 24 24" fill="none">
<path d="M22.6471 11.5022C21.6528 7.0074 20.1566 4.60834 17.9371 3.95302C17.4705 3.81617 16.9865 3.7478 16.5003 3.75005C15.8577 3.75005 15.298 3.90662 14.706 4.07255C13.9925 4.27271 13.1821 4.50005 12.0003 4.50005C10.8186 4.50005 10.0077 4.27318 9.29284 4.07302C8.70034 3.90662 8.14112 3.75005 7.50034 3.75005C6.99757 3.74831 6.497 3.81646 6.013 3.95255C3.80518 4.60505 2.30987 7.00318 1.30112 11.4994C0.216434 16.3379 0.75034 19.3927 2.79831 20.1015C3.07903 20.2004 3.37441 20.2514 3.67206 20.2524C5.07503 20.2524 6.20003 19.0838 6.96878 18.1271C7.83737 17.0443 8.85409 16.4949 12.0003 16.4949C14.8105 16.4949 15.9735 16.876 16.978 18.1271C17.6094 18.9136 18.2061 19.464 18.8014 19.8104C19.5932 20.2707 20.3844 20.3729 21.1527 20.109C22.363 19.696 23.0567 18.6043 23.2152 16.8633C23.3357 15.5283 23.15 13.7747 22.6471 11.5022ZM9.75034 11.2501H8.25034V12.7501C8.25034 12.949 8.17132 13.1397 8.03067 13.2804C7.89002 13.421 7.69925 13.5001 7.50034 13.5001C7.30143 13.5001 7.11066 13.421 6.97001 13.2804C6.82936 13.1397 6.75034 12.949 6.75034 12.7501V11.2501H5.25034C5.05143 11.2501 4.86066 11.171 4.72001 11.0304C4.57936 10.8897 4.50034 10.699 4.50034 10.5001C4.50034 10.3011 4.57936 10.1104 4.72001 9.96972C4.86066 9.82907 5.05143 9.75005 5.25034 9.75005H6.75034V8.25005C6.75034 8.05114 6.82936 7.86038 6.97001 7.71972C7.11066 7.57907 7.30143 7.50005 7.50034 7.50005C7.69925 7.50005 7.89002 7.57907 8.03067 7.71972C8.17132 7.86038 8.25034 8.05114 8.25034 8.25005V9.75005H9.75034C9.94925 9.75005 10.14 9.82907 10.2807 9.96972C10.4213 10.1104 10.5003 10.3011 10.5003 10.5001C10.5003 10.699 10.4213 10.8897 10.2807 11.0304C10.14 11.171 9.94925 11.2501 9.75034 11.2501ZM13.6878 11.4376C13.5024 11.4376 13.3212 11.3826 13.167 11.2796C13.0128 11.1765 12.8927 11.0301 12.8217 10.8588C12.7507 10.6875 12.7322 10.499 12.7684 10.3172C12.8045 10.1353 12.8938 9.96825 13.0249 9.83714C13.156 9.70603 13.3231 9.61674 13.5049 9.58057C13.6868 9.54439 13.8753 9.56296 14.0466 9.63392C14.2179 9.70487 14.3643 9.82504 14.4673 9.97921C14.5704 10.1334 14.6253 10.3146 14.6253 10.5001C14.6253 10.7487 14.5266 10.9872 14.3508 11.163C14.1749 11.3388 13.9365 11.4376 13.6878 11.4376ZM15.7503 13.5001C15.5648 13.5001 15.3835 13.445 15.2293 13.3419C15.075 13.2388 14.9549 13.0922 14.884 12.9208C14.8131 12.7493 14.7947 12.5607 14.831 12.3788C14.8674 12.1969 14.9569 12.0298 15.0883 11.8988C15.2196 11.7678 15.3869 11.6787 15.5689 11.6428C15.7509 11.6069 15.9395 11.6258 16.1107 11.6971C16.282 11.7684 16.4283 11.8889 16.531 12.0434C16.6337 12.1979 16.6883 12.3794 16.6878 12.5649C16.6872 12.8131 16.5882 13.051 16.4124 13.2263C16.2367 13.4016 15.9986 13.5001 15.7503 13.5001ZM15.7503 9.37505C15.5649 9.37505 15.3837 9.32007 15.2295 9.21706C15.0753 9.11404 14.9552 8.96763 14.8842 8.79632C14.8132 8.62501 14.7947 8.43651 14.8309 8.25466C14.867 8.0728 14.9563 7.90575 15.0874 7.77464C15.2185 7.64353 15.3856 7.55424 15.5674 7.51807C15.7493 7.48189 15.9378 7.50046 16.1091 7.57142C16.2804 7.64237 16.4268 7.76254 16.5298 7.91671C16.6329 8.07088 16.6878 8.25213 16.6878 8.43755C16.6878 8.68619 16.5891 8.92465 16.4133 9.10047C16.2374 9.27628 15.999 9.37505 15.7503 9.37505ZM17.8128 11.4376C17.6274 11.4376 17.4462 11.3826 17.292 11.2796C17.1378 11.1765 17.0177 11.0301 16.9467 10.8588C16.8757 10.6875 16.8572 10.499 16.8934 10.3172C16.9295 10.1353 17.0188 9.96825 17.1499 9.83714C17.281 9.70603 17.4481 9.61674 17.6299 9.58057C17.8118 9.54439 18.0003 9.56296 18.1716 9.63392C18.3429 9.70487 18.4893 9.82504 18.5923 9.97921C18.6954 10.1334 18.7503 10.3146 18.7503 10.5001C18.7503 10.7487 18.6516 10.9872 18.4758 11.163C18.2999 11.3388 18.0615 11.4376 17.8128 11.4376Z" fill="#A6A1B3"/>
</svg>